<?xml version="1.0" standalone="no"?><!DOCTYPE svg PUBLIC "-//W3C//DTD SVG 1.1//EN" "http://www.w3.org/Graphics/SVG/1.1/DTD/svg11.dtd"><svg class="icon" width="200px" height="200.00px" viewBox="0 0 1024 1024" version="1.1" xmlns="http://www.w3.org/2000/svg"><path d="M736 64A224 224 0 0 1 960 288v448a224 224 0 0 1-224 224h-448A224 224 0 0 1 64 736v-448A224 224 0 0 1 288 64z m0 64h-448A160 160 0 0 0 128 288v448A160 160 0 0 0 288 896h448a160 160 0 0 0 160-160v-448A160 160 0 0 0 736 128zM542.72 256l5.76 0.32a32 32 0 0 1 27.52 30.464l-0.32 5.76-64 448A32 32 0 0 1 448 737.216l0.32-5.76 64-448a32 32 0 0 1 24.896-26.752l5.568-0.64zM374.72 361.344a32 32 0 0 1 3.648 40.832l-3.648 4.48L269.248 512l105.408 105.344a32 32 0 0 1 3.648 40.832l-3.648 4.48a32 32 0 0 1-40.832 3.648l-4.48-3.648-128-128a32 32 0 0 1-3.648-40.832l3.648-4.48 128-128a32 32 0 0 1 45.312 0z m315.52-3.648l4.48 3.648 128 128a32 32 0 0 1 3.648 40.832l-3.648 4.48-128 128a32 32 0 0 1-48.96-40.832l3.648-4.48L754.752 512l-105.408-105.344a32 32 0 0 1-3.648-40.832l3.648-4.48a32 32 0 0 1 40.832-3.648z" fill="#24324C" /></svg>