<?xml version="1.0" standalone="no"?><!DOCTYPE svg PUBLIC "-//W3C//DTD SVG 1.1//EN" "http://www.w3.org/Graphics/SVG/1.1/DTD/svg11.dtd"><svg class="icon" width="200px" height="200.00px" viewBox="0 0 1024 1024" version="1.1" xmlns="http://www.w3.org/2000/svg"><path d="M874.048 149.952c70.848 70.912 50.752 213.76-38.208 362.112 88.96 148.288 109.056 291.136 38.208 361.984-70.848 70.848-213.696 50.752-362.048-38.144-148.352 88.96-291.2 108.992-362.048 38.144C79.104 803.2 99.2 660.352 188.16 512c-88.96-148.352-108.992-291.2-38.144-362.048 70.912-70.848 213.76-50.752 362.112 38.208l2.624-1.664c147.392-87.552 288.896-106.944 359.36-36.48z m-646.4 421.952l-2.688 4.8c-59.52 111.68-71.68 210.112-29.76 252.096 42.56 42.56 143.232 29.44 256.896-32.384a989.696 989.696 0 0 1-121.088-103.424 990.336 990.336 0 0 1-103.424-121.088z m568.768 0l-6.528 8.896c-28.096 38.08-60.544 75.84-96.896 112.192a990.336 990.336 0 0 1-121.088 103.424c113.664 61.76 214.336 74.944 256.896 32.384s29.44-143.232-32.384-256.896zM512 264l-6.528 4.352a916.16 916.16 0 0 0-129.28 107.904A912.192 912.192 0 0 0 263.936 512a914.88 914.88 0 0 0 112.32 135.744c44.288 44.352 90.432 81.92 135.744 112.32a914.88 914.88 0 0 0 135.744-112.32 912.192 912.192 0 0 0 112.256-135.68 908.672 908.672 0 0 0-112.256-135.808 912.192 912.192 0 0 0-135.68-112.256zM512 448a64 64 0 1 1 0 128 64 64 0 0 1 0-128zM195.2 195.2c-42.56 42.56-29.44 143.232 32.384 256.896a989.696 989.696 0 0 1 103.424-121.088 990.336 990.336 0 0 1 121.088-103.424C338.432 165.824 237.76 152.64 195.2 195.2z m376.704 32.384c41.088 29.568 81.92 64.192 121.088 103.424 39.232 39.168 73.856 80 103.424 121.088 61.76-113.664 74.944-214.336 32.384-256.896s-143.232-29.44-256.896 32.384z" fill="#A6A6A6" /></svg>